<svg version="1.2" xmlns="http://www.w3.org/2000/svg" viewBox="0 0 41 43" width="31" height="33">
	<title>icon_with_logo_markoub-svg</title>
	<style>
		.s0 { fill: #ffffff } 
		.s1 { fill: #ff6900 } 
		.s2 { fill: none;stroke: #ffffff;stroke-width: .7 } 
	</style>
	<g id="Layer">
		<g id="Layer">
			<path id="Layer" fill-rule="evenodd" class="s0" d="m34.1 20.7q0 1.4 0 2.7c-0.1 0.6-0.1 1.3-0.1 2 0 1.4-0.1 2.9-0.1 4.3-0.1 1.6-0.1 3.3-0.2 4.9-0.1 0.7-0.7 1.3-1.4 1.3-0.2 0-0.2 0.1-0.2 0.2 0 0.5 0 0.9 0 1.3 0 0.3-0.1 0.5-0.3 0.7-0.9-0.2-1.9-0.4-2.8-0.6 0-0.4 0-0.7 0-1.1q0-0.3-0.3-0.3c-1 0.1-1.9 0.1-2.9 0.1-3 0-5.9 0-8.9 0-1.5 0-3-0.1-4.5-0.1q-0.3 0-0.3 0.3c0 0.3 0 0.7 0 1-0.2 0.1-0.5 0.1-0.7 0.2-0.7 0.2-1.4 0.3-2.1 0.5-0.2-0.2-0.2-0.4-0.2-0.6q0-0.6 0-1.2c0-0.1 0-0.2-0.2-0.2-0.2 0-0.3 0.1-0.5 0-0.6-0.4-1-0.8-1-1.5 0-1.2-0.1-2.3-0.1-3.4-0.1-2.3-0.1-4.7-0.2-7 0-1 0-1.9 0-2.9 0-1.8-0.1-3.5 0-5.2 0.1-1.7 0.2-3.5 0.2-5.2 0.1-1.2 0.3-2.5 0.5-3.7 0-0.2 0.1-0.5 0.1-0.7 0.3-1.9 1.3-3.1 3.1-3.8 0.8-0.3 1.7-0.6 2.5-0.9 0.1-0.1 0.3-0.1 0.4-0.3 0.5-0.7 1.2-1.1 2.1-1.3 0.5-0.1 1-0.2 1.5-0.2 0.3 0 0.7 0 1 0 0.5 0 0.9 0 1.3 0 0.1 0 0.2 0.1 0.3 0h3.7c0.3 0.1 0.5 0.1 0.8 0.1 0.9 0.2 1.6 0.6 2.2 1.2 0.1 0.1 0.2 0.2 0.3 0.2 1.4 0.4 2.7 0.9 3.9 1.6 1.1 0.7 1.8 1.7 2 3 0.2 1.3 0.4 2.6 0.5 3.8 0.2 1.8 0.3 3.5 0.4 5.3 0.1 1.8 0.1 3.6 0.2 5.5zm-26.1-3.3c0 2.4 0.2 4.8 0.5 7.2 0 0.1 0.1 0.2 0.2 0.2 3.9 0.7 7.9 1.1 12.5 1.1 1.1 0 2.8-0.1 4.6-0.2 2.2-0.2 4.4-0.4 6.5-0.8 0.3 0 0.4-0.2 0.4-0.4 0.3-2.1 0.5-4.1 0.5-6.2 0-2.1 0-4.1-0.2-6.2-0.1-0.9-0.2-1.9-0.3-2.9-0.1-1.1-0.9-2.1-2-2.4-0.4-0.1-0.9-0.1-1.3-0.2-2.7-0.3-5.4-0.5-8.1-0.5-1.5 0-2.9 0-4.3 0.1q-3.1 0.2-6.3 0.6c-0.3 0-0.6 0-0.9 0.2-0.8 0.5-1.3 1.1-1.5 2-0.1 0.4-0.1 0.9-0.1 1.3-0.2 2.4-0.3 4.8-0.2 7.1zm23.6 17.2c0.9 0 1.1-0.2 1-1.1v-0.1c-0.1-0.2-0.2-0.3-0.4-0.3-0.4 0-0.8 0.1-1.2 0.2-0.4 0.1-0.5 0.3-0.4 0.8 0.1 0.4 0.1 0.5 0.6 0.5 0 0 0.4 0 0.4 0zm1.1-4.4c0.2-0.6 0.2-1.1 0.2-1.7 0-0.3-0.2-0.4-0.4-0.4-1.2-0.1-2.3 0-3.5 0.2-0.2 0-0.5 0.1-0.7 0.3q-0.7 0.6-1.2 1.5c-0.1 0.2-0.2 0.3-0.2 0.4-0.1 0.3-0.1 0.4 0.2 0.4 0.3 0.1 0.6 0.1 0.9 0.1 0.8 0 1.6 0 2.4-0.1 0.6 0 1.2-0.1 1.8-0.2 0.3 0 0.4-0.2 0.5-0.5zm-7.5 2.3c-0.1-0.1-0.1 0-0.2 0-3 1.7-6.1 1.8-9.3 0.5-0.1-0.1-0.1-0.1-0.2-0.1-0.1 0-0.2 0-0.2 0.1l0.2 0.2c1.3 0.9 2.8 1.4 4.5 1.4 1.9 0 3.6-0.7 5.1-1.9 0-0.1 0.1-0.1 0.1-0.2zm-16.3-1.8c1.3 0.2 2.6 0.3 4 0.3 0.3 0 0.5 0 0.8 0 0.4 0 0.4-0.1 0.3-0.4-0.1-0.2-0.1-0.3-0.2-0.4-0.2-0.5-0.6-1-1-1.4-0.2-0.2-0.4-0.3-0.7-0.4-0.8-0.1-1.6-0.2-2.4-0.2q-0.6-0.2-1.2 0c-0.2 0.1-0.3 0.1-0.3 0.3 0 0.5 0 1.1 0.1 1.6 0.1 0.5 0.2 0.6 0.6 0.6zm0.7 3.9c0.6-0.1 0.8-0.2 0.7-0.9 0-0.1 0-0.1 0-0.1 0-0.1-0.1-0.2-0.2-0.3-0.4-0.1-0.9-0.2-1.4-0.2-0.2 0.1-0.3 0.1-0.3 0.3-0.1 0.3-0.1 0.5 0 0.8 0.1 0.2 0.2 0.4 0.4 0.4 0.2 0 0.6 0 0.8 0z"/>
			<path id="Layer" fill-rule="evenodd" class="s0" d="m34.5 8.7c-0.1-0.4-0.5-0.5-0.8-0.4-0.3 0.1-0.3 0-0.3-0.3 0-0.3-0.1-0.6-0.1-0.9 0-0.1 0-0.2 0.1-0.2 0.6 0 1.1 0 1.6 0.2 0.5 0.2 0.7 0.6 0.8 1q0 0.3 0.3 0.3c0.5 0.1 0.8 0.4 0.8 0.9 0.1 1.9 0.1 3.8-0.2 5.7q0 0.3-0.3 0.3c-0.7 0.2-1.3 0.2-2 0-0.1 0-0.2-0.1-0.2-0.3-0.3-1.5-0.4-3.1-0.5-4.6 0-0.4 0-0.8-0.1-1.2 0-0.3 0.1-0.4 0.4-0.5 0.2 0 0.4 0 0.5 0z"/>
			<path id="Layer" fill-rule="evenodd" class="s0" d="m7.7 7.2c-0.1 0.3-0.1 0.6-0.1 1 0 0.2-0.1 0.2-0.3 0.2-0.5-0.1-0.7 0-0.9 0.3 0 0 0 0 0 0.1 0.2 0 0.5 0 0.7 0.2 0.1 0.1 0.2 0.1 0.2 0.3 0 0.6-0.1 1.2-0.1 1.7-0.2 1.3-0.3 2.7-0.6 4.1 0 0.1-0.1 0.2-0.2 0.3-0.7 0.2-1.3 0.2-2 0-0.1-0.1-0.2-0.1-0.2-0.3-0.2-1.4-0.3-2.9-0.2-4.3 0-0.5 0-1 0.1-1.5 0-0.4 0.4-0.7 0.8-0.8 0.1 0 0.1-0.1 0.2-0.3 0.2-0.7 0.6-1.1 1.3-1.2 0.4 0 0.7-0.1 1.1 0 0.1 0 0.2 0.1 0.2 0.2z"/>
		</g>
		<g id="Layer">
			<g id="Layer">
				<path id="Layer" class="s0" d="m40.9 42.1c-4.9-1.9-11.4-3.2-20.5-3.2-2.7 0-5.2 0.2-7.5 0.4-5.2 0.5-9.4 1.6-12.9 2.8 0-0.1 0-0.1 0-0.1 2.4-1.2 6.4-3 11.8-4 2.6-0.6 5.4-0.9 8.6-0.9 9.7 0 17 3.2 20.5 5z"/>
			</g>
		</g>
	</g>
	<g id="Layer">
		<g id="Layer">
			<path id="Layer" class="s0" d="m109.5 17.1l11.8-16.4h6.5l-18.3 24.7z"/>
			<path id="Layer" class="s0" d="m115.8 0.7l0.1 6.7-6.4 8.7v-15.4z"/>
			<path id="Layer" class="s0" d="m121.3 25.3l-4.7-8.4 3.9-5.2 7.8 13.5z"/>
			<path id="Layer" class="s0" d="m80 7.7c0.7 0 1.3 0.1 1.9 0.4 0.5 0.3 1 0.6 1.3 1.1 0.3 0.5 0.6 1 0.8 1.7 0.2 0.6 0.3 1.3 0.3 2v7.9h-3.1v-7.9q0-0.9-0.6-1.5-0.6-0.6-1.5-0.6-0.9 0-1.5 0.6-0.6 0.6-0.6 1.5v7.9h-3v-7.9q0-0.9-0.6-1.5c-0.2-0.2-0.4-0.4-0.7-0.5-0.3-0.1-0.5-0.2-0.8-0.2-0.6 0-1.1 0.2-1.6 0.6q-0.6 0.6-0.6 1.5v7.9h-3v-12.6h3v1.1c0.5-0.4 1-0.8 1.6-1.1 0.5-0.3 1.1-0.4 1.7-0.4 0.8 0 1.4 0.2 1.9 0.5 0.5 0.3 0.9 0.7 1.3 1.3q0.8-0.8 1.8-1.2c0.4-0.4 1.2-0.6 2-0.6z"/>
			<path id="Layer" class="s0" d="m98.9 8v12.7h-3v-6.4c0-1-0.4-1.9-1.1-2.6-0.7-0.7-1.6-1.1-2.6-1.1-0.5 0-1 0.1-1.4 0.3-0.4 0.2-0.8 0.4-1.2 0.8-0.7 0.7-1.1 1.6-1.1 2.6 0 1 0.4 1.9 1.1 2.6 0.3 0.4 0.7 0.6 1.2 0.8 0.4 0.2 0.9 0.3 1.4 0.3 0.5 0 1-0.1 1.4-0.3l1.1 2.7q-1.2 0.6-2.7 0.6c-0.9 0-1.8-0.2-2.6-0.5-0.8-0.3-1.5-0.8-2-1.4-0.6-0.6-1-1.3-1.3-2.1-0.3-0.8-0.5-1.7-0.5-2.6 0-0.9 0.2-1.8 0.5-2.6 0.3-0.8 0.8-1.5 1.3-2.1 0.6-0.6 1.3-1.1 2-1.4 0.8-0.3 1.6-0.5 2.6-0.5 0.8 0 1.6 0.1 2.2 0.4 0.6 0.3 1.2 0.6 1.7 1v-1.2z"/>
			<path id="Layer" class="s0" d="m105.4 8.1c0.6-0.3 1.3-0.4 2-0.4v3.1c-1 0-1.9 0.4-2.6 1.1-0.7 0.7-1.1 1.6-1.1 2.6v6.4h-3v-6.4-6.5h3v1c0.5-0.4 1-0.7 1.7-0.9z"/>
			<path id="Layer" fill-rule="evenodd" class="s0" d="m132.6 7.7c0.9 0 1.8 0.2 2.6 0.5 0.8 0.3 1.5 0.8 2.1 1.4 0.6 0.6 1.1 1.3 1.4 2.1 0.3 0.8 0.5 1.7 0.5 2.6 0 0.9-0.2 1.8-0.5 2.6-0.3 0.8-0.8 1.5-1.4 2.1-0.6 0.6-1.3 1.1-2.1 1.4-0.8 0.3-1.7 0.5-2.6 0.5-0.9 0-1.8-0.2-2.6-0.5-0.8-0.3-1.5-0.8-2.1-1.4-0.6-0.6-1.1-1.3-1.4-2.1-0.3-0.8-0.5-1.7-0.5-2.6 0-0.9 0.2-1.8 0.5-2.6 0.3-0.8 0.8-1.5 1.4-2.1 0.6-0.6 1.3-1.1 2.1-1.4 0.8-0.3 1.7-0.5 2.6-0.5zm0 3c-1 0-1.9 0.4-2.6 1.1-0.7 0.7-1.1 1.6-1.1 2.6 0 1 0.4 1.9 1.1 2.6 0.3 0.4 0.7 0.6 1.2 0.8 0.4 0.2 0.9 0.3 1.4 0.3 0.5 0 1-0.1 1.4-0.3 0.4-0.2 0.8-0.4 1.2-0.8 0.7-0.7 1.1-1.6 1.1-2.6 0-1-0.4-1.9-1.1-2.6-0.7-0.7-1.6-1.1-2.6-1.1z"/>
			<path id="Layer" class="s0" d="m152.5 8.1v12.7h-3v-1c-0.5 0.4-1 0.7-1.6 1-0.6 0.2-1.2 0.4-1.9 0.4-0.8 0-1.6-0.2-2.3-0.5-0.7-0.3-1.3-0.7-1.7-1.3-0.5-0.5-0.9-1.2-1.1-1.9-0.3-0.7-0.4-1.5-0.4-2.3v-7.1h3v7.1q0 1.2 0.9 2.1 0.9 0.9 2.1 0.9 1.2 0 2.1-0.9 0.9-0.9 0.9-2.1v-7.1z"/>
			<path id="Layer" class="s0" d="m161.1 7.7c0.9 0 1.8 0.2 2.6 0.5 0.8 0.3 1.5 0.8 2 1.4 0.6 0.6 1 1.3 1.3 2.1 0.3 0.8 0.5 1.7 0.5 2.6 0 0.9-0.2 1.8-0.5 2.6-0.3 0.8-0.8 1.5-1.3 2.1-0.6 0.6-1.3 1.1-2 1.4-0.8 0.3-1.6 0.5-2.6 0.5q-1.5 0-2.7-0.6l1.1-2.7c0.4 0.2 0.9 0.3 1.4 0.3 1 0 1.9-0.4 2.6-1.1 0.7-0.7 1.1-1.6 1.1-2.6 0-1-0.4-1.9-1.1-2.6-0.7-0.7-1.6-1.1-2.6-1.1-1 0-1.8 0.4-2.6 1.1-0.7 0.7-1.1 1.6-1.1 2.6v5.3 1h-3v-17.5h3v6.1c0.5-0.4 1.1-0.7 1.7-1 0.7-0.3 1.4-0.4 2.2-0.4z"/>
		</g>
		<g id="Layer">
			<path id="Layer" class="s1" d="m120.1 7.2l-0.3-0.3 1.1-1.5 0.3 0.2z"/>
			<path id="Layer" class="s1" d="m113.1 16.6l-0.3-0.2 1.1-1.5 0.3 0.2z"/>
			<path id="Layer" class="s1" d="m116.6 11.7l-0.2-0.2 1.1-1.5 0.2 0.2z"/>
			<path id="Layer" class="s1" d="m123.6 2.4l-0.2-0.2 1-1.5h0.4z"/>
			<path id="Layer" class="s1" d="m110.5 19.6l0.3 0.2-1.3 1.8v-0.5"/>
		</g>
		<g id="Layer">
			<path id="Layer" fill-rule="evenodd" class="s0" d="m170 28.5c0 0.2 0.1 0.4 0.1 0.6-0.9 0.3-1.7 0.6-2.6 0.9-0.1-0.2-0.1-0.4-0.1-0.5 0.8-0.4 1.6-0.7 2.6-1z"/>
			<g id="Layer">
				<path id="Layer" fill-rule="evenodd" class="s0" d="m165.5 38.9c0-0.6 0-1.2 0-1.7 0-1.8 0-3.6 0-5.5 0-0.3 0.1-0.4 0.4-0.4 0.6 0 0.6-0.1 0.6 0.6q0 1.7 0 3.3 0 0.1 0 0.3c0.4-0.3 0.7-0.6 1.1-0.8 0.5-0.3 1-0.6 1.6-0.7 1.4-0.2 2.5 0.7 2.7 2 0.1 0.7 0 1.4 0.1 2.1 0 0.6 0.2 0.8 0.7 0.8 0.9 0 1.8 0 2.6 0-0.1-0.4-0.4-0.8-0.4-1.2q-0.2-0.9 0-1.8c0.2-1.4 1.9-2.3 3.3-1.8 1.1 0.4 1.7 1.2 1.7 2.4q0 1.3 0 2.7c0 0.4-0.1 0.5-0.5 0.5-2.1 0-4.3 0-6.4 0-0.5 0-1-0.2-1.4-0.6-0.5 0.6-1.2 0.6-1.9 0.6q-5.7 0-11.4 0c-0.7 0-1.1 0.4-1.1 1.1 0.1 0.5 0.5 0.9 1 0.9 0.3 0 0.6 0 1 0q0.3 0 0.3 0.3 0 0.1 0 0.3c0 0.2-0.1 0.3-0.2 0.3-0.5 0-0.9 0-1.4-0.1-0.8-0.1-1.4-0.8-1.5-1.6-0.1-0.9 0.3-1.7 1-2 0.2-0.1 0.5-0.1 0.7-0.2 0.3 0 0.5 0 0.8 0-0.1-0.1-0.1-0.2-0.1-0.3-0.3-0.7-0.6-1.3-0.9-2-0.1-0.2-0.1-0.4-0.1-0.5 0.2-1.1 1.4-2.1 2.6-2.2 1.3 0 2.4 0.8 2.7 2 0 0.2 0 0.5-0.1 0.7-0.3 0.7-0.7 1.5-1 2.2 1 0.3 2.2 0.3 3.5 0.3zm1 0c1.3 0 2.5 0 3.8 0 0.5 0 0.7-0.4 0.8-0.9 0-0.5 0-1.1 0-1.6-0.1-1.3-1.1-1.9-2.3-1.4-0.8 0.4-1.5 0.9-2.1 1.6-0.1 0.1-0.1 0.2-0.1 0.3-0.1 0.7-0.1 1.3-0.1 2zm12.4 0c0-0.8 0-1.6 0-2.3 0-0.5-0.2-1-0.6-1.3-0.5-0.4-1.1-0.5-1.7-0.3-0.6 0.3-0.9 0.7-1 1.4 0 0.4 0 0.7 0 1.1 0 0.7 0.6 1.3 1.2 1.4 0.7 0.1 1.4 0 2.1 0zm-18.7 0c0.4 0.1 0.6-0.1 0.7-0.4 0.3-0.7 0.6-1.3 0.9-1.9 0.2-0.3 0.1-0.6-0.1-0.9-0.4-0.6-0.9-0.9-1.6-0.8-0.7 0.1-1.3 0.4-1.6 1.1q-0.1 0.3 0 0.6c0.3 0.7 0.7 1.3 1 2 0.2 0.2 0.4 0.4 0.7 0.3z"/>
				<path id="Layer" fill-rule="evenodd" class="s0" d="m140.2 34.5q1.1 0 2.1 0c1.6 0 2.6 1.1 2.6 2.6q0 0.6 0 1.2c0 0.3 0.1 0.5 0.5 0.5q1 0 2.1 0c0.4 0 0.5-0.2 0.5-0.7 0-2.2 0-4.3 0-6.5 0-0.1 0-0.4 0.1-0.4 0.2 0 0.5 0 0.7 0 0 0 0.1 0.1 0.1 0.2 0 2.3 0 4.6 0 6.8 0 0.8-0.6 1.3-1.4 1.4-0.6 0-1.3 0-1.9 0-0.4 0-0.7-0.2-1.2-0.3-0.4 0.4-1 0.3-1.5 0.3-1.8 0-3.7 0-5.5 0-0.9 0-1.5-0.6-1.5-1.5q0-3.3 0-6.6c0-0.4 0.2-0.4 0.4-0.4 0.3 0 0.4 0 0.4 0.4q0 3.2 0 6.3c0 0.2 0 0.3 0 0.5 0 0.2 0.2 0.4 0.4 0.4 0.1 0 0.3 0 0.4 0 1.8 0 3.7 0 5.5 0 0.1 0 0.3 0 0.4 0 0.3 0 0.5-0.2 0.5-0.5q0-0.7 0-1.5c-0.1-0.9-0.8-1.5-1.7-1.5-0.9 0-1.7 0-2.6 0-0.5 0-0.6-0.1-0.6-0.6 0-0.3 0-0.6 0.1-0.9 0.2-1.2 1.3-2.1 2.5-2.2q0.6 0 1.2 0c0.2 0 0.2 0.1 0.2 0.3 0 0.8 0.1 0.6-0.6 0.6-0.2 0-0.5 0-0.7 0-0.8 0.3-1.4 1-1.5 2.1z"/>
				<path id="Layer" fill-rule="evenodd" class="s0" d="m122.8 38.9c0-0.8 0-1.7 0-2.5 0-1.8 1.7-2.9 3.4-2.3 1 0.4 1.7 1.2 1.7 2.3 0 0.4 0 0.9 0 1.3-0.2 1.1-1.3 2.1-2.4 2.1-1.8 0-3.7 0-5.5 0-0.1 0-0.2 0-0.4 0-0.1 0.6-0.4 1-0.8 1.4-0.8 0.7-1.7 0.9-2.7 0.5-1-0.4-1.5-1.2-1.6-2.2q0-1.3 0-2.7 0-0.3 0.3-0.3c0.1 0 0.1 0 0.2 0 0.3 0 0.4 0.1 0.4 0.4q0 1.3 0 2.7c0 0.9 0.8 1.6 1.7 1.5 0.9 0 1.6-0.8 1.6-1.7q0-2.4 0-4.8c0-0.3 0.1-0.4 0.4-0.4 0.1 0 0.1 0 0.2 0q0.3 0 0.3 0.3c0 1.1 0 2.1 0 3.2q0 0.6 0 1.2c1 0 2 0 3.2 0zm0.8 0c0.6 0 1.2 0 1.7 0 0.8 0 1.4-0.6 1.4-1.4 0-0.4 0-0.9 0-1.3-0.1-0.8-0.8-1.4-1.6-1.4-0.8 0-1.5 0.7-1.5 1.5 0 0.9 0 1.7 0 2.6z"/>
				<path id="Layer" fill-rule="evenodd" class="s0" d="m102.8 39.2c-0.5 0.4-1 0.6-1.6 0.6q-1.2 0-2.4 0-0.3 0-0.3-0.3 0-0.2 0-0.3 0-0.3 0.3-0.3c0.7 0 1.4 0 2.2 0 0.3 0 0.6 0 0.8-0.1 0.3-0.1 0.5-0.3 0.5-0.6q0-1.2 0-2.4c0-0.5-0.5-0.9-1-1q-0.9-0.1-1.5 0.3c-0.2 0.1-0.3 0.1-0.4-0.1-0.1-0.1-0.2-0.2-0.2-0.3 0-0.1 0-0.3 0.1-0.3 0.7-0.6 2.5-0.8 3.4 0.1q0.6 0.6 0.6 1.5 0 1.1 0 2.1c0 0.5 0.2 0.7 0.7 0.8 0.6 0 1.2 0 1.7 0 0.4 0 0.5-0.2 0.5-0.7 0-2.2 0-4.3 0-6.5 0-0.1 0-0.4 0.1-0.4 0.2 0 0.5 0 0.7 0 0 0 0.1 0.1 0.1 0.2q0 3.4 0 6.9c0 0.8-0.6 1.3-1.3 1.3q-0.7 0-1.5 0c-0.6 0.1-1.1 0-1.5-0.5z"/>
				<path id="Layer" fill-rule="evenodd" class="s0" d="m134 37.4c0 1.1 0 2.1 0 3.2 0 1-0.8 1.5-1.7 1.6-0.3 0-0.6 0-0.8 0q-0.3 0-0.3-0.3c0-0.6 0-0.5 0.5-0.5 0.1 0 0.1 0 0.2 0 0.8 0 1.1-0.4 1.1-1.2 0-1.9 0-3.8 0-5.6 0-0.3 0.1-0.4 0.4-0.4 0.1 0 0.1 0 0.2 0 0.3 0 0.3 0.1 0.3 0.3 0.2 1 0.2 2 0.1 2.9 0.1 0 0 0 0 0z"/>
				<path id="Layer" fill-rule="evenodd" class="s0" d="m94.1 37.4c0 1.1 0 2.1 0 3.2-0.1 0.9-0.7 1.5-1.6 1.6-0.3 0-0.5 0-0.8 0q-0.3 0-0.3-0.3c0-0.7 0-0.6 0.6-0.6 0.1 0 0.1 0 0.2 0q1.2 0 1.2-1.2c0-1.9 0-3.8 0-5.6 0-0.4 0.2-0.4 0.4-0.4 0.4 0 0.5 0 0.5 0.4-0.1 1-0.1 2-0.2 2.9z"/>
				<path id="Layer" fill-rule="evenodd" class="s0" d="m97 35.6c0 1.3 0 2.6 0 3.8 0 0.3-0.1 0.4-0.4 0.4-0.1 0-0.1 0-0.2 0q-0.3 0-0.3-0.3c0-0.5 0-0.9 0-1.4 0-2.2 0-4.3 0-6.5 0-0.1 0.1-0.3 0.1-0.3 0.2 0 0.5 0 0.7 0 0 0 0 0.2 0 0.3 0.1 1.4 0.1 2.7 0.1 4z"/>
				<path id="Layer" fill-rule="evenodd" class="s0" d="m109.9 35.6q0 1.9 0 3.9 0 0.4-0.3 0.3-0.1 0-0.3 0-0.3 0-0.3-0.3 0-0.3 0-0.6c0-2.4 0-4.8 0-7.3 0-0.1 0.1-0.3 0.1-0.3 0.2 0 0.5 0 0.7 0 0 0 0 0.2 0 0.3 0.1 1.4 0.1 2.7 0.1 4z"/>
				<path id="Layer" fill-rule="evenodd" class="s0" d="m151.7 35.6q0 1.9 0 3.9c0 0.3-0.1 0.4-0.4 0.3-0.1 0-0.1 0-0.2 0-0.3 0-0.3-0.1-0.3-0.3q0-3.9 0-7.8 0-0.5 0.3-0.3c0.1 0 0.1 0 0.2 0 0.3 0 0.3 0.1 0.3 0.3 0.1 1.3 0.1 2.6 0.1 3.9z"/>
				<path id="Layer" fill-rule="evenodd" class="s0" d="m169.1 31c0.1 0.2 0.1 0.5 0.2 0.6q0.1 0.2 0.3 0.3c0.1-0.1 0.2-0.3 0.2-0.4 0-0.2-0.1-0.5-0.1-0.7 0.1 0 0.2-0.1 0.4-0.2 0.3 0.4 0.3 1.1 0.1 1.5-0.3 0.4-0.7 0.4-1.1 0.1-0.2 0.4-0.5 0.7-0.9 0.5-0.3-0.1-0.4-0.5-0.4-0.9 0-0.3 0.2-0.4 0.5-0.5 0 0.2-0.1 0.4 0 0.5 0 0.1 0.1 0.2 0.2 0.3 0.1-0.1 0.3-0.1 0.3-0.2 0.1-0.1 0.1-0.3 0.1-0.5-0.1-0.3-0.1-0.3 0.2-0.4z"/>
				<path id="Layer" fill-rule="evenodd" class="s0" d="m176.8 30.8c-0.4 0-0.7-0.3-0.7-0.7 0-0.4 0.3-0.8 0.7-0.8 0.4 0 0.8 0.3 0.8 0.7-0.1 0.5-0.4 0.8-0.8 0.8zm0-0.3c0.1-0.2 0.3-0.3 0.3-0.4 0-0.1-0.2-0.3-0.3-0.3-0.1 0-0.3 0.1-0.3 0.2 0 0.2 0.2 0.3 0.3 0.5z"/>
				<path id="Layer" fill-rule="evenodd" class="s0" d="m116.6 33.3c0-0.5 0.3-0.7 0.8-0.5 0.1 0 0.1 0.1 0.1 0.2q0 0.2 0 0.3c0 0.5 0 0.5-0.4 0.5-0.5 0-0.5 0-0.5-0.5z"/>
				<path id="Layer" fill-rule="evenodd" class="s0" d="m176.6 32.5c0 0.1 0 0.4-0.1 0.4-0.2 0.1-0.5 0-0.7 0 0 0-0.1-0.1-0.1-0.2 0-0.1 0-0.3 0-0.4 0-0.3 0.1-0.4 0.4-0.4 0.6 0.1 0.5 0 0.5 0.6z"/>
				<path id="Layer" fill-rule="evenodd" class="s0" d="m178.1 32.5c0 0.1 0 0.4-0.1 0.4-0.2 0.1-0.5 0-0.7 0 0 0-0.1-0.1-0.1-0.2 0-0.1 0-0.2 0-0.2 0-0.6 0-0.5 0.5-0.6 0.2 0 0.4 0.1 0.3 0.3 0.1 0.2 0.1 0.2 0.1 0.3z"/>
			</g>
		</g>
		<path id="Layer" class="s2" d="m184.6 38.6h23"/>
		<path id="Layer" class="s2" d="m66.4 38.6h23"/>
		<path id="Layer" class="s0" d="m207.5 8v12.7h-3v-6.4c0-1-0.4-1.9-1.1-2.6-0.7-0.7-1.6-1.1-2.6-1.1-0.5 0-1 0.1-1.4 0.3-0.4 0.2-0.8 0.4-1.2 0.8-0.7 0.7-1.1 1.6-1.1 2.6 0 1 0.4 1.9 1.1 2.6 0.3 0.4 0.7 0.6 1.2 0.8 0.4 0.2 0.9 0.3 1.4 0.3 0.5 0 1-0.1 1.4-0.3l1.1 2.7q-1.2 0.6-2.7 0.6c-0.9 0-1.8-0.2-2.6-0.5-0.8-0.3-1.5-0.8-2-1.4-0.6-0.6-1-1.3-1.3-2.1-0.3-0.8-0.5-1.7-0.5-2.6 0-0.9 0.2-1.8 0.5-2.6 0.3-0.8 0.8-1.5 1.3-2.1 0.6-0.6 1.3-1.1 2-1.4 0.8-0.3 1.6-0.5 2.6-0.5 0.8 0 1.6 0.1 2.2 0.4 0.6 0.3 1.2 0.6 1.7 1v-1.2z"/>
		<path id="Layer" class="s0" d="m169.6 20.8v-3h3v3z"/>
		<path id="Layer" class="s0" d="m188.6 7.7c0.7 0 1.3 0.1 1.9 0.4 0.5 0.3 1 0.6 1.3 1.1 0.3 0.5 0.6 1 0.8 1.7 0.2 0.6 0.3 1.3 0.3 2v7.9h-3.1v-7.9q0-0.9-0.6-1.5-0.6-0.6-1.5-0.6-0.9 0-1.5 0.6-0.6 0.6-0.6 1.5v7.9h-3v-7.9q0-0.9-0.6-1.5c-0.2-0.2-0.4-0.4-0.7-0.5-0.3-0.1-0.5-0.2-0.8-0.2-0.6 0-1.1 0.2-1.6 0.6q-0.6 0.6-0.6 1.5v7.9h-3v-12.6h3v1.1c0.5-0.4 1-0.8 1.6-1.1 0.5-0.3 1.1-0.4 1.7-0.4 0.8 0 1.4 0.2 1.9 0.5 0.5 0.3 0.9 0.7 1.3 1.3q0.8-0.8 1.8-1.2c0.3-0.4 1.1-0.6 2-0.6z"/>
	</g>
</svg>