<?xml version="1.0" encoding="utf-8"?>
<!-- Generator: Adobe Illustrator 22.0.0, SVG Export Plug-In . SVG Version: 6.00 Build 0)  -->
<svg version="1.1" id="Calque_2" xmlns="http://www.w3.org/2000/svg" xmlns:xlink="http://www.w3.org/1999/xlink" x="0px" y="0px"
	 viewBox="0 0 336 228" style="enable-background:new 0 0 336 228;" xml:space="preserve">
<style type="text/css">
	.st0{fill:#E9272E;}
	.st1{fill:#FDBD12;}
	.st2{fill:#FEFEFD;}
</style>
<g>
	<g>
		<path class="st0" d="M9.2,158.5c2.3-2.3,4.4-4.9,6.4-7.4c0.2-0.2,0.3-0.6,0.3-0.9c0.3-2.2,1.4-3.9,3.1-5.4c2.8-2.4,4.8-5.4,5.7-9
			c0.4-1.5,1.1-2.9,2.2-4c0.8-0.8,1.2-1.8,1.7-2.7c1.2-2.3,1.5-4.6-0.4-6.7c-0.2-0.2-0.4-0.4-0.3-0.9c0.7,0.3,1.2,0.8,1.7,1.2
			c1.7,1.5,3.6,1.8,5.6,1.2c6.5-2,12.3-5.4,17.3-9.9c2.3-2.1,3.4-5,3.4-8.2c0.1-4.8-0.8-9.5-1.1-14.3c-0.2-2-0.3-4.1-0.3-6.1
			c0-0.8-0.2-1.5-0.8-2.1c-0.2-0.2-0.7-0.5-0.3-0.8c0.4-0.4,0.6,0.2,0.8,0.4c0.3,0.3,0.5,0.6,0.7,0.9c0.8,0.9,1.4,2,2.9,2.1
			c0.6,0,1.1,0.5,1.6,1c3.6,3.5,7.1,7,10.7,10.5c0.2,0.2,0.4,0.4,0.5,0.6c0.6,1,0.2,1.9-0.9,2c-1.6,0.1-3.2,0-4.7,0
			c-0.7,0-1.6-0.3-2,0.5c-0.4,0.9-0.2,1.8,0.4,2.6c0.7,1,1.3,2,2,3c2,2.8,3.1,5.9,3.6,9.2c0.2,1,0.6,1.2,1.5,1.2
			c1.5-0.1,2.9-0.2,4.4-0.1c2.8,0.2,4.3,1.8,4.2,4.2c0,0.6-0.3,1.1-0.7,1.6c-2.4,2.9-5.2,5.4-7.8,8.1c0,0-0.1,0.1-0.1,0.1
			c-0.6,0.5-1.3,0.7-2.1,0.4c-0.3-0.1-0.6-0.3-0.5-0.7c0.2-0.8,0.7-1.4,1.5-1.5c1-0.1,1.5-0.8,2.1-1.4c1.3-1.5,2.6-2.9,3.9-4.3
			c0.9-1,1-2.2,0.4-2.8c-0.7-0.7-2.1-0.7-2.9,0.1c-0.9,0.9-2,1.2-3.2,1.1c-1.1-0.1-1.8,0.3-2.4,1.2c-0.4,0.7-1,1.3-1.5,2
			c-3.4,4.6-8.1,6.2-13.6,6.2c-3.4,0-6.8,0.6-9.9,2.3c-1.3,0.7-2.4,1.6-3.4,2.6c-2,2-4,3.9-6,5.9c-2.5,2.5-5.5,4.3-9.1,4.9
			c-2.1,0.3-3.8,1.3-5.1,3c-2.5,3.1-5.2,6-7.8,9c-0.5,0.6-1,0.8-1.7,0.7C9.2,158.7,9.2,158.6,9.2,158.5z M62.5,95.7
			c0.6-0.1,1.1-0.5,1.1-1.2c0-0.7-0.4-1.2-1.2-1.2c-0.7,0-1.2,0.5-1.2,1.2C61.3,95.2,61.7,95.7,62.5,95.7z"/>
		<path class="st0" d="M131.3,132.5c-0.1,2.3-0.2,4.5-0.3,6.6c-0.4,6.9-0.3,13.7,0,20.6c0.1,1.5,0,1.5-1.5,1.4
			c-3.6-0.2-7.2-0.4-10.9,0.1c-1,0.1-0.8-0.4-0.7-0.9c0.2-3.5,0.4-7.1,0.4-10.6c0-1.6,0-1.6-1.7-1.6c-3.2,0-6.4,0-9.6,0
			c-0.8,0-1.1,0.2-1.1,1c0,3.8-0.1,7.5,0.1,11.2c0,0.7-0.1,0.9-0.9,0.8c-3.7-0.4-7.4-0.7-11.1-0.1c-1.1,0.2-0.9-0.5-0.9-1.1
			c0.2-7.7,0.4-15.5,0.3-23.2c0-1.2-0.1-2.3-0.2-3.5c-0.1-0.6,0.1-0.7,0.7-0.6c3.7,0.6,7.5,0.4,11.2,0.1c1.3-0.1,1.5,0.3,1.4,1.5
			c-0.3,2.9-0.5,5.7-0.6,8.6c0,1,0.1,1.4,1.2,1.4c3.3-0.1,6.7-0.1,10,0c1,0,1.2-0.3,1.1-1.2c-0.2-2.9-0.2-5.8-0.3-8.7
			c-0.1-1,0-1.3,1.2-1.2C123.1,133.2,127.1,133.3,131.3,132.5z"/>
		<path class="st1" d="M196.6,66.8c-2.2,1.9-4.5,3.7-6.3,6c-0.9,1.2-1.8,2.5-2.3,4c-0.9,2.2-0.9,4.5,0.1,6.7c1.4,3.1,3,6.1,4.3,9.3
			c2.3,5.6,0.4,12.3-4.4,15.6c-3.9,2.8-8.2,2.8-12.5,0.9c-4.2-1.8-6.2-5.1-6.8-9.6c-0.8-7.1,1.9-13,6.5-18.1
			c4.9-5.4,10.8-9.3,17.1-12.9c1.3-0.8,2.7-1.4,4.1-2.2C196.4,66.6,196.5,66.7,196.6,66.8z"/>
		<path d="M164.5,120.9c0.8-0.2,1.2-0.3,1.8-0.2c8.2,1.2,16.1-0.1,23.9-3c5.3-2,10.8-3.7,16.2-5.5c3.8-1.3,7.7-1.3,11.6-1.6
			c10.3-0.9,20.5-1.4,30.8-2.6c5.9-0.7,11.6-2.6,17.3-4.3c5.8-1.7,11.5-3.8,17.4-4.7c7.6-1.3,15.3-1.4,23.1-1
			c2.5,0.1,4.9,0.4,7.4,0.9c-0.5,0-1.1,0-1.6,0c-18.3-1-36,1.9-53.1,8.4c-6.4,2.4-12.8,4.8-19.3,7.1c-6.8,2.4-13.9,4-21,5.5
			c-11.6,2.4-23.3,4-35.2,3.9C177.2,123.4,170.9,122.8,164.5,120.9z"/>
		<path class="st0" d="M195.7,136.7c-5.2,0.2-10.1,0.3-15,0.5c-1.1,0-1.8-0.1-1.4-1.4c0.1-0.2,0-0.5,0-0.7c0.1-2.3,0.1-2.3,2.5-2.3
			c9.7,0,19.4,0,29.1,0c0.5,0,1.2-0.3,1.5,0.3c0.3,0.7,0,1.3-0.5,1.9c-5.4,6.5-10.7,13.1-16,19.7c-0.8,0.9-1.5,1.9-2.4,3
			c0.6,0,1,0.1,1.5,0.1c5.4,0,10.8,0,16.2,0c0.9,0,1.2,0.2,1.2,1.2c0,2.6,0,2.6-2.6,2.6c-10.3,0-20.7,0-31,0c-0.4,0-1.1,0.3-1.3-0.3
			c-0.2-0.6,0-1.1,0.4-1.6c4.4-5.6,8.8-11.3,13.2-16.9C192.6,140.7,194,138.8,195.7,136.7z"/>
		<path class="st0" d="M85.2,148.6c0,2.9,0,5.7,0,8.5c0,2.6,0,2.7-2.6,3.1c-7.6,1.2-15.1,1.8-22.7,0.1c-3-0.7-5.8-1.7-8.3-3.6
			c-5.5-4-6.7-10.6-2.8-16.2c2.7-3.9,6.4-6.1,10.9-7.1c8.3-1.8,16.5-1.4,24.7,0.6c0.3,0.1,0.5,0.2,0.9,0.3c-1,1.7-1.6,3.5-2.1,5.4
			c-0.2,0.7-0.6,0.8-1.2,0.8c-0.6,0-1,0.1-1.2-0.7c-0.3-1.1-1.2-1.8-2.2-2.3c-4.3-2.4-8.8-2.8-13.3-0.8c-3.5,1.6-5.1,4.6-5.6,8.3
			c-0.3,2.2-0.2,4.3,0.3,6.5c1.1,4.7,4.4,7.1,9.4,7c3.8,0,3.8,0,3.8-3.7c0-1.7,0-3.5,0-5.2c0-0.5,0-0.9,0.7-0.8
			C77.7,149.5,81.4,149.2,85.2,148.6z"/>
		<path class="st0" d="M253.8,161.7c-4-0.2-7.7-0.3-11.4-0.2c-2.6,0.1-2.6,0.1-3.6-2.4c-0.4-1-0.6-2.5-1.4-3
			c-0.8-0.5-2.2-0.2-3.3-0.2c-3.1,0-6.2,0-9.3,0c-0.7,0-1.1,0.2-1.4,0.9c-0.5,1.3-1.2,2.6-1.8,3.8c-0.2,0.4-0.3,0.7-0.9,0.7
			c-2-0.1-4.1-0.1-6.1,0.1c0-0.6,0.4-0.9,0.6-1.3c5-8.8,10-17.6,14.9-26.4c0.4-0.8,0.8-1.1,1.8-0.9c1.8,0.4,3.7,0.2,5.6-0.1
			c0.8-0.1,1.2,0.1,1.6,0.9c4.3,8.9,8.6,17.8,13.6,26.4C253.1,160.5,253.4,161,253.8,161.7z M225.4,152.4c2.9,0,5.5,0,8.1,0
			c2.2,0,2.2,0,1.2-1.9c-1.3-2.5-2.7-5.1-4.1-7.7C228.9,146,227.3,149.1,225.4,152.4z"/>
		<path class="st0" d="M135.5,161.3c2.2-3.9,4.3-7.6,6.4-11.2c3.1-5.4,6.2-10.8,9.2-16.3c0.5-0.8,0.9-1.2,1.9-1.1
			c1.8,0.3,3.7,0.3,5.5,0c0.9-0.2,1.2,0.1,1.6,0.9c3.5,6.6,6.9,13.3,10.4,19.9c1.3,2.5,2.6,5,3.9,7.5c-0.5,0.4-0.9,0.2-1.4,0.2
			c-3.8,0.1-7.7,0.1-11.5,0.2c-0.6,0-1-0.2-1.2-0.8c-0.6-1.5-1.2-3-1.8-4.5c-0.2-0.6-0.5-0.8-1.2-0.8c-3.8,0-7.7,0-11.5,0
			c-0.7,0-1,0.3-1.3,0.9c-0.6,1.5-1.3,3-2,4.5c-0.2,0.4-0.3,0.7-0.9,0.7C139.8,161.3,137.8,161.3,135.5,161.3z M146.7,152.3
			c3.3,0,6.3,0,9.3,0c0.9,0,0.5-0.5,0.3-0.9c-1.4-2.8-2.9-5.6-4.3-8.4c-0.1-0.2-0.2-0.3-0.4-0.2C150,145.9,148.4,149,146.7,152.3z"
			/>
		<path class="st0" d="M286.7,161.7c1.3-2.3,2.5-4.5,3.8-6.6c4-7,7.9-14,11.8-21c0.4-0.7,0.8-1,1.7-0.8c1.9,0.3,3.7,0.2,5.6,0.1
			c0.8-0.1,1.2,0.2,1.5,0.9c3.6,7.6,7.3,15.2,11.4,22.6c0.9,1.5,1.8,3,3.2,4.9c-4.7,0-9,0-13.3,0c-0.6,0-0.7-0.3-0.9-0.7
			c-0.6-1.4-1.3-2.9-1.9-4.3c-0.2-0.5-0.5-0.7-1.1-0.7c-3.8,0-7.6,0-11.4-0.1c-0.7,0-1.1,0.2-1.3,0.8c-0.6,1.4-1.3,2.8-1.9,4.2
			c-0.3,0.6-0.6,0.9-1.3,0.9C290.7,161.7,288.8,161.7,286.7,161.7z M297.4,152.8c3.2,0,6.2,0,9.3,0c1.1,0,1-0.3,0.6-1.1
			c-1.2-2.3-2.4-4.7-3.6-7c-0.3-0.5-0.4-1.2-1-1.6C300.9,146.4,299.2,149.5,297.4,152.8z"/>
		<path class="st0" d="M271.8,161.5c-4,0-7.9,0-11.9,0c-1,0-1.1-0.3-1.1-1.2c0.6-7.6,1-15.3,0.5-23c-0.1-1.2-0.2-2.4-0.4-3.6
			c-0.1-0.7,0.1-0.9,0.8-0.8c3.8,0.5,7.6,0.3,11.4,0.1c1-0.1,1.2,0.1,1.1,1.1c-0.4,6.1-0.7,12.1-0.7,18.2c0,1.5,0.2,2.9,0.2,4.4
			c0,0.8,0.4,1,1.2,1c3.7-0.1,7.5,0,11.2-0.1c0.8,0,1.1,0.1,1,1c-0.2,2.7-0.2,2.7-2.9,2.7C278.6,161.5,275.2,161.5,271.8,161.5z"/>
		<path class="st1" d="M204.5,102.3c0.9-0.2,1.6-0.1,2.3,0c4.2,0.6,8.1-0.1,12-1.7c3.9-1.7,7.9-3.2,11.9-4.9
			c2.6-1.1,5.3-1.2,7.9-1.4c6.5-0.7,13-1.1,19.5-2c4.5-0.6,8.6-2.4,12.8-4c4.3-1.6,8.6-3.2,13.2-3.7c5-0.6,10-0.5,15,0.2
			c-0.2,0.3-0.5,0.2-0.7,0.2c-12.4-0.6-24.1,2.1-35.3,7.4c-8.4,4-17,7.4-26.1,9.5c-7.4,1.7-14.9,2.8-22.5,2.4
			C211.2,104.1,207.9,103.6,204.5,102.3z"/>
		<path class="st0" d="M227.3,68.4c-0.7,0.7-1.2,1.2-1.7,1.8c-1,1-1.9,2.1-2.6,3.4c-0.9,1.8-1.1,3.5-0.2,5.4
			c0.8,1.8,1.7,3.6,2.5,5.4c1.1,2.4,0.9,4.8-0.3,7.2c-1.7,3.4-4.7,4.9-8.3,4.1c-3.4-0.7-5.6-3.3-5.9-6.9c-0.4-4,0.9-7.5,3.4-10.5
			c3.4-4.2,7.9-7.1,12.5-9.7C226.8,68.5,227,68.5,227.3,68.4z"/>
		<path class="st0" d="M233.3,89.6c0.2-0.1,0.2-0.1,0.2-0.1c4.3,0.6,8.2-0.9,12-2.8c3.6-1.8,7.5-2.2,11.4-2.4c6-0.3,11.8-1.6,17.4-4
			c4-1.7,8.3-1.9,12.6-1.5c-1.9,0.2-3.8,0.3-5.7,0.5c-4.2,0.5-8.2,1.7-12,3.5c-6,2.8-12.1,5.4-18.6,6.7c-5.3,1-10.6,1.7-16,0.4
			C234.2,89.9,233.8,89.8,233.3,89.6z"/>
		<path d="M247.6,69.4c-0.4,0.5-0.9,1-1.3,1.5c-1.4,1.7-1.8,3.4-0.7,5.4c0.4,0.8,0.8,1.7,1.1,2.5c0.7,1.7,0.5,3.4-0.4,5
			c-1,1.7-2.4,2.5-4.4,2.2c-1.7-0.2-3.2-1.5-3.6-3.2c-0.6-2.6-0.1-5,1.4-7.2c1.9-2.8,4.6-4.7,7.5-6.4
			C247.4,69.2,247.5,69.3,247.6,69.4z"/>
		<path class="st1" d="M196.7,66.4c0.1-0.2,0.3-0.3,0.4-0.1c0.1,0.2-0.1,0.2-0.2,0.3C196.8,66.5,196.8,66.5,196.7,66.4z"/>
		<path class="st1" d="M196.4,66.6c0.1,0,0.2-0.1,0.4-0.1c0,0,0.1,0.1,0.1,0.1c-0.1,0.1-0.2,0.2-0.3,0.2
			C196.5,66.7,196.4,66.6,196.4,66.6z"/>
		<path class="st2" d="M62.5,95.7c-0.8-0.1-1.2-0.5-1.2-1.2c0-0.7,0.4-1.2,1.2-1.2c0.7,0,1.2,0.5,1.2,1.2
			C63.6,95.3,63.1,95.7,62.5,95.7z"/>
	</g>
</g>
</svg>
