<svg xmlns="http://www.w3.org/2000/svg" viewBox="0 0 18 20" width="18" height="20">
	<style>
		tspan { white-space:pre }
		.shp0 { fill: #e9272e } 
	</style>
	<path id="Layer" fill-rule="evenodd" class="shp0" d="M0 19.51C0.59 18.91 1.13 18.24 1.65 17.6C1.7 17.55 1.73 17.45 1.73 17.37C1.8 16.8 2.09 16.36 2.52 15.98C3.24 15.36 3.76 14.59 3.99 13.66C4.09 13.27 4.27 12.91 4.56 12.63C4.76 12.43 4.87 12.17 5 11.94C5.3 11.34 5.38 10.75 4.89 10.21C4.84 10.16 4.79 10.11 4.82 9.98C5 10.06 5.12 10.18 5.25 10.29C5.69 10.67 6.18 10.75 6.69 10.6C8.37 10.08 9.86 9.21 11.15 8.05C11.74 7.51 12.02 6.76 12.02 5.94C12.05 4.7 11.82 3.49 11.74 2.25C11.69 1.74 11.66 1.2 11.66 0.68C11.66 0.48 11.61 0.3 11.46 0.14C11.41 0.09 11.28 0.01 11.38 -0.06C11.48 -0.17 11.54 -0.01 11.59 0.04C11.66 0.12 11.72 0.19 11.77 0.27C11.97 0.5 12.13 0.79 12.51 0.81C12.67 0.81 12.8 0.94 12.93 1.07C13.85 1.97 14.75 2.87 15.68 3.77C15.73 3.82 15.78 3.88 15.81 3.93C15.96 4.19 15.86 4.42 15.58 4.44C15.17 4.47 14.75 4.44 14.37 4.44C14.19 4.44 13.96 4.37 13.85 4.57C13.75 4.8 13.8 5.03 13.96 5.24C14.14 5.5 14.29 5.76 14.47 6.01C14.99 6.73 15.27 7.53 15.4 8.38C15.45 8.64 15.55 8.69 15.78 8.69C16.17 8.67 16.53 8.64 16.92 8.67C17.64 8.72 18.02 9.13 18 9.75C18 9.9 17.92 10.03 17.82 10.16C17.2 10.91 16.48 11.55 15.81 12.24L15.78 12.27C15.63 12.4 15.45 12.45 15.24 12.37C15.17 12.35 15.09 12.3 15.11 12.19C15.17 11.99 15.3 11.83 15.5 11.81C15.76 11.78 15.89 11.6 16.04 11.45C16.38 11.06 16.71 10.7 17.05 10.34C17.28 10.08 17.3 9.77 17.15 9.62C16.97 9.44 16.61 9.44 16.4 9.64C16.17 9.88 15.89 9.95 15.58 9.93C15.3 9.9 15.11 10 14.96 10.24C14.86 10.42 14.7 10.57 14.57 10.75C13.7 11.94 12.49 12.35 11.07 12.35C10.2 12.35 9.32 12.5 8.52 12.94C8.19 13.12 7.91 13.35 7.65 13.61C7.13 14.12 6.62 14.61 6.1 15.13C5.46 15.77 4.69 16.24 3.76 16.39C3.22 16.47 2.78 16.73 2.45 17.16C1.8 17.96 1.11 18.71 0.44 19.48C0.31 19.63 0.18 19.69 0 19.66C0 19.56 0 19.53 0 19.51ZM13.72 3.34C13.88 3.31 14.01 3.21 14.01 3.03C14.01 2.85 13.9 2.72 13.7 2.72C13.52 2.72 13.39 2.85 13.39 3.03C13.42 3.21 13.52 3.34 13.72 3.34Z" />
</svg>