<svg xmlns="http://www.w3.org/2000/svg" viewBox="0 0 317 96" width="317" height="96">
	<style>
		tspan { white-space:pre }
		.shp0 { fill: #e9272e } 
		.shp1 { fill: #fdbd12 } 
		.shp2 { fill: #000000 } 
		.shp3 { fill: #fefefd } 
	</style>
	<g id="Layer">
		<g id="Layer">
			<path id="Layer" fill-rule="evenodd" class="shp0" d="M0.2 92.5C2.5 90.2 4.6 87.6 6.6 85.1C6.8 84.9 6.9 84.5 6.9 84.2C7.2 82 8.3 80.3 10 78.8C12.8 76.4 14.8 73.4 15.7 69.8C16.1 68.3 16.8 66.9 17.9 65.8C18.7 65 19.1 64 19.6 63.1C20.8 60.8 21.1 58.5 19.2 56.4C19 56.2 18.8 56 18.9 55.5C19.6 55.8 20.1 56.3 20.6 56.7C22.3 58.2 24.2 58.5 26.2 57.9C32.7 55.9 38.5 52.5 43.5 48C45.8 45.9 46.9 43 46.9 39.8C47 35 46.1 30.3 45.8 25.5C45.6 23.5 45.5 21.4 45.5 19.4C45.5 18.6 45.3 17.9 44.7 17.3C44.5 17.1 44 16.8 44.4 16.5C44.8 16.1 45 16.7 45.2 16.9C45.5 17.2 45.7 17.5 45.9 17.8C46.7 18.7 47.3 19.8 48.8 19.9C49.4 19.9 49.9 20.4 50.4 20.9C54 24.4 57.5 27.9 61.1 31.4C61.3 31.6 61.5 31.8 61.6 32C62.2 33 61.8 33.9 60.7 34C59.1 34.1 57.5 34 56 34C55.3 34 54.4 33.7 54 34.5C53.6 35.4 53.8 36.3 54.4 37.1C55.1 38.1 55.7 39.1 56.4 40.1C58.4 42.9 59.5 46 60 49.3C60.2 50.3 60.6 50.5 61.5 50.5C63 50.4 64.4 50.3 65.9 50.4C68.7 50.6 70.2 52.2 70.1 54.6C70.1 55.2 69.8 55.7 69.4 56.2C67 59.1 64.2 61.6 61.6 64.3L61.5 64.4C60.9 64.9 60.2 65.1 59.4 64.8C59.1 64.7 58.8 64.5 58.9 64.1C59.1 63.3 59.6 62.7 60.4 62.6C61.4 62.5 61.9 61.8 62.5 61.2C63.8 59.7 65.1 58.3 66.4 56.9C67.3 55.9 67.4 54.7 66.8 54.1C66.1 53.4 64.7 53.4 63.9 54.2C63 55.1 61.9 55.4 60.7 55.3C59.6 55.2 58.9 55.6 58.3 56.5C57.9 57.2 57.3 57.8 56.8 58.5C53.4 63.1 48.7 64.7 43.2 64.7C39.8 64.7 36.4 65.3 33.3 67C32 67.7 30.9 68.6 29.9 69.6C27.9 71.6 25.9 73.5 23.9 75.5C21.4 78 18.4 79.8 14.8 80.4C12.7 80.7 11 81.7 9.7 83.4C7.2 86.5 4.5 89.4 1.9 92.4C1.4 93 0.9 93.2 0.2 93.1C0.2 92.7 0.2 92.6 0.2 92.5ZM53.5 29.7C54.1 29.6 54.6 29.2 54.6 28.5C54.6 27.8 54.2 27.3 53.4 27.3C52.7 27.3 52.2 27.8 52.2 28.5C52.3 29.2 52.7 29.7 53.5 29.7Z" />
			<path id="Layer" class="shp0" d="M122.3 66.5C122.2 68.8 122.1 71 122 73.1C121.6 80 121.7 86.8 122 93.7C122.1 95.2 122 95.2 120.5 95.1C116.9 94.9 113.3 94.7 109.6 95.2C108.6 95.3 108.8 94.8 108.9 94.3C109.1 90.8 109.3 87.2 109.3 83.7C109.3 82.1 109.3 82.1 107.6 82.1C104.4 82.1 101.2 82.1 98 82.1C97.2 82.1 96.9 82.3 96.9 83.1C96.9 86.9 96.8 90.6 97 94.3C97 95 96.9 95.2 96.1 95.1C92.4 94.7 88.7 94.4 85 95C83.9 95.2 84.1 94.5 84.1 93.9C84.3 86.2 84.5 78.4 84.4 70.7C84.4 69.5 84.3 68.4 84.2 67.2C84.1 66.6 84.3 66.5 84.9 66.6C88.6 67.2 92.4 67 96.1 66.7C97.4 66.6 97.6 67 97.5 68.2C97.2 71.1 97 73.9 96.9 76.8C96.9 77.8 97 78.2 98.1 78.2C101.4 78.1 104.8 78.1 108.1 78.2C109.1 78.2 109.3 77.9 109.2 77C109 74.1 109 71.2 108.9 68.3C108.8 67.3 108.9 67 110.1 67.1C114.1 67.2 118.1 67.3 122.3 66.5Z" />
			<path id="Layer" class="shp1" d="M187.6 0.8C185.4 2.7 183.1 4.5 181.3 6.8C180.4 8 179.5 9.3 179 10.8C178.1 13 178.1 15.3 179.1 17.5C180.5 20.6 182.1 23.6 183.4 26.8C185.7 32.4 183.8 39.1 179 42.4C175.1 45.2 170.8 45.2 166.5 43.3C162.3 41.5 160.3 38.2 159.7 33.7C158.9 26.6 161.6 20.7 166.2 15.6C171.1 10.2 177 6.3 183.3 2.7C184.6 1.9 186 1.3 187.4 0.5C187.4 0.6 187.5 0.7 187.6 0.8Z" />
			<path id="Layer" class="shp2" d="M155.5 54.9C156.3 54.7 156.7 54.6 157.3 54.7C165.5 55.9 173.4 54.6 181.2 51.7C186.5 49.7 192 48 197.4 46.2C201.2 44.9 205.1 44.9 209 44.6C219.3 43.7 229.5 43.2 239.8 42C245.7 41.3 251.4 39.4 257.1 37.7C262.9 36 268.6 33.9 274.5 33C282.1 31.7 289.8 31.6 297.6 32C300.1 32.1 302.5 32.4 305 32.9C304.5 32.9 303.9 32.9 303.4 32.9C285.1 31.9 267.4 34.8 250.3 41.3C243.9 43.7 237.5 46.1 231 48.4C224.2 50.8 217.1 52.4 210 53.9C198.4 56.3 186.7 57.9 174.8 57.8C168.2 57.4 161.9 56.8 155.5 54.9Z" />
			<path id="Layer" class="shp0" d="M186.7 70.7C181.5 70.9 176.6 71 171.7 71.2C170.6 71.2 169.9 71.1 170.3 69.8C170.4 69.6 170.3 69.3 170.3 69.1C170.4 66.8 170.4 66.8 172.8 66.8C182.5 66.8 192.2 66.8 201.9 66.8C202.4 66.8 203.1 66.5 203.4 67.1C203.7 67.8 203.4 68.4 202.9 69C197.5 75.5 192.2 82.1 186.9 88.7C186.1 89.6 185.4 90.6 184.5 91.7C185.1 91.7 185.5 91.8 186 91.8C191.4 91.8 196.8 91.8 202.2 91.8C203.1 91.8 203.4 92 203.4 93C203.4 95.6 203.4 95.6 200.8 95.6C190.5 95.6 180.1 95.6 169.8 95.6C169.4 95.6 168.7 95.9 168.5 95.3C168.3 94.7 168.5 94.2 168.9 93.7C173.3 88.1 177.7 82.4 182.1 76.8C183.6 74.7 185 72.8 186.7 70.7Z" />
			<path id="Layer" class="shp0" d="M76.2 82.6C76.2 85.5 76.2 88.3 76.2 91.1C76.2 93.7 76.2 93.8 73.6 94.2C66 95.4 58.5 96 50.9 94.3C47.9 93.6 45.1 92.6 42.6 90.7C37.1 86.7 35.9 80.1 39.8 74.5C42.5 70.6 46.2 68.4 50.7 67.4C59 65.6 67.2 66 75.4 68C75.7 68.1 75.9 68.2 76.3 68.3C75.3 70 74.7 71.8 74.2 73.7C74 74.4 73.6 74.5 73 74.5C72.4 74.5 72 74.6 71.8 73.8C71.5 72.7 70.6 72 69.6 71.5C65.3 69.1 60.8 68.7 56.3 70.7C52.8 72.3 51.2 75.3 50.7 79C50.4 81.2 50.5 83.3 51 85.5C52.1 90.2 55.4 92.6 60.4 92.5C64.2 92.5 64.2 92.5 64.2 88.8C64.2 87.1 64.2 85.3 64.2 83.6C64.2 83.1 64.2 82.7 64.9 82.8C68.7 83.5 72.4 83.2 76.2 82.6Z" />
			<path id="Layer" fill-rule="evenodd" class="shp0" d="M244.8 95.7C240.8 95.5 237.1 95.4 233.4 95.5C230.8 95.6 230.8 95.6 229.8 93.1C229.4 92.1 229.2 90.6 228.4 90.1C227.6 89.6 226.2 89.9 225.1 89.9C222 89.9 218.9 89.9 215.8 89.9C215.1 89.9 214.7 90.1 214.4 90.8C213.9 92.1 213.2 93.4 212.6 94.6C212.4 95 212.3 95.3 211.7 95.3C209.7 95.2 207.6 95.2 205.6 95.4C205.6 94.8 206 94.5 206.2 94.1C211.2 85.3 216.2 76.5 221.1 67.7C221.5 66.9 221.9 66.6 222.9 66.8C224.7 67.2 226.6 67 228.5 66.7C229.3 66.6 229.7 66.8 230.1 67.6C234.4 76.5 238.7 85.4 243.7 94C244.1 94.5 244.4 95 244.8 95.7ZM216.4 86.4C219.3 86.4 221.9 86.4 224.5 86.4C226.7 86.4 226.7 86.4 225.7 84.5C224.4 82 223 79.4 221.6 76.8C219.9 80 218.3 83.1 216.4 86.4Z" />
			<path id="Layer" fill-rule="evenodd" class="shp0" d="M126.5 95.3C128.7 91.4 130.8 87.7 132.9 84.1C136 78.7 139.1 73.3 142.1 67.8C142.6 67 143 66.6 144 66.7C145.8 67 147.7 67 149.5 66.7C150.4 66.5 150.7 66.8 151.1 67.6C154.6 74.2 158 80.9 161.5 87.5C162.8 90 164.1 92.5 165.4 95C164.9 95.4 164.5 95.2 164 95.2C160.2 95.3 156.3 95.3 152.5 95.4C151.9 95.4 151.5 95.2 151.3 94.6C150.7 93.1 150.1 91.6 149.5 90.1C149.3 89.5 149 89.3 148.3 89.3C144.5 89.3 140.6 89.3 136.8 89.3C136.1 89.3 135.8 89.6 135.5 90.2C134.9 91.7 134.2 93.2 133.5 94.7C133.3 95.1 133.2 95.4 132.6 95.4C130.8 95.3 128.8 95.3 126.5 95.3ZM137.7 86.3C141 86.3 144 86.3 147 86.3C147.9 86.3 147.5 85.8 147.3 85.4C145.9 82.6 144.4 79.8 143 77C142.9 76.8 142.8 76.7 142.6 76.8C141 79.9 139.4 83 137.7 86.3Z" />
			<path id="Layer" fill-rule="evenodd" class="shp0" d="M277.7 95.7C279 93.4 280.2 91.2 281.5 89.1C285.5 82.1 289.4 75.1 293.3 68.1C293.7 67.4 294.1 67.1 295 67.3C296.9 67.6 298.7 67.5 300.6 67.4C301.4 67.3 301.8 67.6 302.1 68.3C305.7 75.9 309.4 83.5 313.5 90.9C314.4 92.4 315.3 93.9 316.7 95.8C312 95.8 307.7 95.8 303.4 95.8C302.8 95.8 302.7 95.5 302.5 95.1C301.9 93.7 301.2 92.2 300.6 90.8C300.4 90.3 300.1 90.1 299.5 90.1C295.7 90.1 291.9 90.1 288.1 90C287.4 90 287 90.2 286.8 90.8C286.2 92.2 285.5 93.6 284.9 95C284.6 95.6 284.3 95.9 283.6 95.9C281.7 95.7 279.8 95.7 277.7 95.7ZM288.4 86.8C291.6 86.8 294.6 86.8 297.7 86.8C298.8 86.8 298.7 86.5 298.3 85.7C297.1 83.4 295.9 81 294.7 78.7C294.4 78.2 294.3 77.5 293.7 77.1C291.9 80.4 290.2 83.5 288.4 86.8Z" />
			<path id="Layer" class="shp0" d="M262.8 95.5C258.8 95.5 254.9 95.5 250.9 95.5C249.9 95.5 249.8 95.2 249.8 94.3C250.4 86.7 250.8 79 250.3 71.3C250.2 70.1 250.1 68.9 249.9 67.7C249.8 67 250 66.8 250.7 66.9C254.5 67.4 258.3 67.2 262.1 67C263.1 66.9 263.3 67.1 263.2 68.1C262.8 74.2 262.5 80.2 262.5 86.3C262.5 87.8 262.7 89.2 262.7 90.7C262.7 91.5 263.1 91.7 263.9 91.7C267.6 91.6 271.4 91.7 275.1 91.6C275.9 91.6 276.2 91.7 276.1 92.6C275.9 95.3 275.9 95.3 273.2 95.3C269.6 95.5 266.2 95.5 262.8 95.5Z" />
			<path id="Layer" class="shp1" d="M195.5 36.3C196.4 36.1 197.1 36.2 197.8 36.3C202 36.9 205.9 36.2 209.8 34.6C213.7 32.9 217.7 31.4 221.7 29.7C224.3 28.6 227 28.5 229.6 28.3C236.1 27.6 242.6 27.2 249.1 26.3C253.6 25.7 257.7 23.9 261.9 22.3C266.2 20.7 270.5 19.1 275.1 18.6C280.1 18 285.1 18.1 290.1 18.8C289.9 19.1 289.6 19 289.4 19C277 18.4 265.3 21.1 254.1 26.4C245.7 30.4 237.1 33.8 228 35.9C220.6 37.6 213.1 38.7 205.5 38.3C202.2 38.1 198.9 37.6 195.5 36.3Z" />
			<path id="Layer" class="shp0" d="M218.3 2.4C217.6 3.1 217.1 3.6 216.6 4.2C215.6 5.2 214.7 6.3 214 7.6C213.1 9.4 212.9 11.1 213.8 13C214.6 14.8 215.5 16.6 216.3 18.4C217.4 20.8 217.2 23.2 216 25.6C214.3 29 211.3 30.5 207.7 29.7C204.3 29 202.1 26.4 201.8 22.8C201.4 18.8 202.7 15.3 205.2 12.3C208.6 8.1 213.1 5.2 217.7 2.6C217.8 2.5 218 2.5 218.3 2.4Z" />
			<path id="Layer" class="shp0" d="M224.3 23.6C224.5 23.5 224.5 23.5 224.5 23.5C228.8 24.1 232.7 22.6 236.5 20.7C240.1 18.9 244 18.5 247.9 18.3C253.9 18 259.7 16.7 265.3 14.3C269.3 12.6 273.6 12.4 277.9 12.8C276 13 274.1 13.1 272.2 13.3C268 13.8 264 15 260.2 16.8C254.2 19.6 248.1 22.2 241.6 23.5C236.3 24.5 231 25.2 225.6 23.9C225.2 23.9 224.8 23.8 224.3 23.6Z" />
			<path id="Layer" class="shp2" d="M238.6 3.4C238.2 3.9 237.7 4.4 237.3 4.9C235.9 6.6 235.5 8.3 236.6 10.3C237 11.1 237.4 12 237.7 12.8C238.4 14.5 238.2 16.2 237.3 17.8C236.3 19.5 234.9 20.3 232.9 20C231.2 19.8 229.7 18.5 229.3 16.8C228.7 14.2 229.2 11.8 230.7 9.6C232.6 6.8 235.3 4.9 238.2 3.2C238.4 3.2 238.5 3.3 238.6 3.4Z" />
			<path id="Layer" class="shp1" d="M187.7 0.4C187.8 0.2 188 0.1 188.1 0.3C188.2 0.5 188 0.5 187.9 0.6C187.8 0.5 187.8 0.5 187.7 0.4Z" />
			<path id="Layer" class="shp1" d="M187.4 0.6C187.5 0.6 187.6 0.5 187.8 0.5L187.9 0.6C187.8 0.7 187.7 0.8 187.6 0.8C187.5 0.7 187.4 0.6 187.4 0.6Z" />
			<path id="Layer" class="shp3" d="M53.5 29.7C52.7 29.6 52.3 29.2 52.3 28.5C52.3 27.8 52.7 27.3 53.5 27.3C54.2 27.3 54.7 27.8 54.7 28.5C54.6 29.3 54.1 29.7 53.5 29.7Z" />
		</g>
	</g>
</svg>